<?xml version="1.0" encoding="UTF-8"?>
<svg id="Layer_1" data-name="Layer 1" xmlns="http://www.w3.org/2000/svg" viewBox="0 0 32 32">
  <defs>
    <style>
      .cls-1 {
        fill: #fff;
      }

      .cls-2 {
        fill: #87d8f5;
      }

      .cls-3 {
        fill: #15b5ea;
      }

      .cls-4 {
        fill: #50dcaa;
      }

      .cls-5 {
        fill: #213b55;
      }
    </style>
  </defs>
  <path class="cls-2" d="M21.68-4.12c7.02.56,3.82,1.54,7.88,8.31,3.31,5.52,3.38,3.53,2.26,8.6-1.32,5.94.2,3.64-5.69,6.92-4.96,2.76-4.86,3.84-9.69,1.64-6.61-3.01-3.38-.3-5.32-8.47-1.68-7.09-3.11-3.61.92-10.1,3.54-5.69,3.78-7.38,9.64-6.91Z"/>
  <path class="cls-4" d="M10.24-1.6c7.62-.82,9.99-1.59,14.6,5.33,4.9,7.36,5.1,8.6.29,17.02-5.8,10.14-3.69,8.89-14.89,8.53C1.38,29,.06,27.06-3.09,19.86-7.43,9.96-5.56,15.64.2,6.37,5.45-2.08.54-.56,10.24-1.6Z"/>
  <path class="cls-3" d="M16.64,11.84c5.71.24,1.42-.03,6.57,4.63,4.48,4.06,5.71,1.72,5.79,6.57.09,5.44-.54,2.64-5.56,6.8-5.42,4.49-.13,2.74-6.8,3.44-4.7.5-4.85,1.34-8.42-1.83-4.35-3.86-3.6-2.55-3.12-8.42.41-4.98.7-3.56,4.4-7.14,4.18-4.06,2.17-4.27,7.14-4.06Z"/>
  <path class="cls-5" d="M15.36,7.83c6.14-.24,4.82-2.68,8.1,1.07,3.44,3.92,1.74,1.94.16,8.35-1.59,6.44.92,4.86-3.96,7.04-4.6,2.04-2.45.86-7.7-1.85-4.79-2.47-4.18-.36-5.6-5.01-1.41-4.62-1.56-4.49,1.65-7.92,3.49-3.71,1.36-1.44,7.35-1.67Z"/>
  <path id="X_path" data-name="X path" class="cls-1" d="M11,21.35l3.63-5.36-3.6-5.33h2.65l2.33,3.6,2.27-3.6h2.67l-3.6,5.3,3.65,5.39h-2.67l-2.35-3.66-2.32,3.66h-2.67Z"/>
</svg>