<?xml version="1.0" encoding="UTF-8"?>
<svg id="Layer_1" data-name="Layer 1" xmlns="http://www.w3.org/2000/svg" viewBox="0 0 400 400">
  <defs>
    <style>
      .cls-1 {
        fill: #fff;
      }

      .cls-2 {
        fill: #87d8f5;
      }

      .cls-3 {
        fill: #15b5ea;
      }

      .cls-4 {
        fill: #50dcaa;
      }

      .cls-5 {
        fill: #213b55;
      }
    </style>
  </defs>
  <path class="cls-2" d="M270.95-51.46c87.75,7,47.8,19.2,98.55,103.85,41.4,69,42.25,44.15,28.25,107.55-16.45,74.3,2.45,45.55-71.15,86.55-61.95,34.55-60.7,48.05-121.15,20.55-82.65-37.6-42.3-3.7-66.5-105.9-21-88.6-38.9-45.1,11.5-126.25,44.2-71.15,47.2-92.2,120.5-86.35Z"/>
  <path class="cls-4" d="M128-20c95.3-10.2,124.9-19.85,182.5,66.65,61.3,92.05,63.75,107.55,3.65,212.8-72.45,126.75-46.15,111.1-186.15,106.65-110.8-3.55-127.25-27.9-166.65-117.85-54.2-123.8-30.8-52.75,41.2-168.65C68.15-26,6.8-7.05,128-20Z"/>
  <path class="cls-3" d="M208,147.95c71.4,3,17.8-.4,82.15,57.9,56.05,50.8,71.35,21.5,72.4,82.15,1.15,67.95-6.7,33.05-69.5,85.05-67.7,56.15-1.65,34.2-85.05,43.05-58.8,6.2-60.65,16.7-105.2-22.9-54.4-48.3-45-31.85-39-105.2,5.1-62.25,8.8-44.45,54.95-89.25,52.25-50.75,27.15-53.35,89.25-50.8Z"/>
  <path class="cls-5" d="M192,97.85c76.8-3,60.25-33.45,101.3,13.35,43,49,21.8,24.3,1.95,104.35-19.9,80.5,11.5,60.8-49.55,87.95-57.55,25.55-30.65,10.75-96.25-23.15-59.9-30.9-52.2-4.45-69.95-62.65-17.6-57.75-19.5-56.15,20.65-98.95,43.6-46.4,17-17.95,91.85-20.9Z"/>
  <path id="X_path" data-name="X path" class="cls-1" d="M137.48,266.85l45.38-67.04-45.01-66.66h33.14l29.19,45.01,28.43-45.01h33.33l-45,66.28,45.57,67.41h-33.33l-29.38-45.76-29,45.76h-33.33Z"/>
</svg>